# xmcd
#
# Track frame offsets: 
#        150
#        15753
#        41638
#        60663
#        76238
#        99593
#        116983
#        134800
#        162680
#        177843
#        205303
#        222288
#        242350
#        257568
#        274043
#        286925
#        309525
#
# Disc length: 4483 seconds
#
# Revision: 0
# Processed by: cddbd v1.5.2PL0 Copyright (c) Steve Scherf et al.
# Submitted via: ExactAudioCopy v0.95b4
#
DISCID=f3118111
DTITLE=Various Artist - Let My Horses Run Free
DYEAR=1900
DGENRE=Country
TTITLE0=Greg "Fingers" Taylor - Shim Sham Shimmy
TTITLE1=Freddie and The Screamers - Full Moon On Main Street
TTITLE2=Greg Harris - Things Change
TTITLE3=Tim Krekel - That Kind Of Love
TTITLE4=Fish Heads and Rice - If You Love Me (Let Me Go)
TTITLE5=Mick Clarke Band - Let It Go
TTITLE6=Ron Kavana - Underneath The Harlem Moon
TTITLE7=Sarasota Slim - Rolling Stone
TTITLE8=Dave Kelly - Sunny Afternoon
TTITLE9=The Sam Lay Blues Band - Red Line
TTITLE10=Mary-Ann Brandon - A Hard Man Is Good To Find
TTITLE11=Homesick James and The Hypnotics - Married Woman
TTITLE12=Frank Frost With Freddie and The Screamers - My Baby
TTITLE13=Pat McLaughlin - Don't Tell Me
TTITLE14=Andy J. Forest and Snapshots - Locomotivo
TTITLE15=Dirk Hamilton - Change In A Childs Hand
TTITLE16=Peter Rowan - On The Blue Horizon
EXTD=
EXTT0=
EXTT1=
EXTT2=
EXTT3=
EXTT4=
EXTT5=
EXTT6=
EXTT7=
EXTT8=
EXTT9=
EXTT10=
EXTT11=
EXTT12=
EXTT13=
EXTT14=
EXTT15=
EXTT16=
PLAYORDER=
